ply
format ascii 1.0
element vertex 100
property float x
property float y
property float z
element face 162
property list uchar int vertex_indices
end_header
-5.000000 5.000000 0.000000
-3.888889 5.000000 0.000000
-3.888889 3.888889 0.000000
-2.777778 5.000000 0.000000
-2.777778 3.888889 0.000000
-1.666667 5.000000 0.000000
-1.666667 3.888889 0.000000
-0.555555 5.000000 0.000000
-0.555555 3.888889 0.000000
0.555556 5.000000 0.000000
0.555556 3.888889 0.000000
1.666667 5.000000 0.000000
1.666667 3.888889 0.000000
2.777778 5.000000 0.000000
2.777778 3.888889 0.000000
3.888889 5.000000 0.000000
3.888889 3.888889 0.000000
5.000000 5.000000 0.000000
5.000000 3.888889 0.000000
-5.000000 3.888889 0.000000
-3.888889 2.777778 0.000000
-2.777778 2.777778 0.000000
-1.666667 2.777778 0.000000
-0.555555 2.777778 0.000000
0.555556 2.777778 0.000000
1.666667 2.777778 0.000000
2.777778 2.777778 0.000000
3.888889 2.777778 0.000000
5.000000 2.777778 0.000000
-5.000000 2.777778 0.000000
-3.888889 1.666667 0.000000
-2.777778 1.666667 0.000000
-1.666667 1.666667 0.000000
-0.555555 1.666667 0.000000
0.555556 1.666667 0.000000
1.666667 1.666667 0.000000
2.777778 1.666667 0.000000
3.888889 1.666667 0.000000
5.000000 1.666667 0.000000
-5.000000 1.666667 0.000000
-3.888889 0.555555 0.000000
-2.777778 0.555555 0.000000
-1.666667 0.555555 0.000000
-0.555555 0.555555 0.000000
0.555556 0.555555 0.000000
1.666667 0.555555 0.000000
2.777778 0.555555 0.000000
3.888889 0.555555 0.000000
5.000000 0.555555 0.000000
-5.000000 0.555555 0.000000
-3.888889 -0.555556 0.000000
-2.777778 -0.555556 0.000000
-1.666667 -0.555556 0.000000
-0.555555 -0.555556 0.000000
0.555556 -0.555556 0.000000
1.666667 -0.555556 0.000000
2.777778 -0.555556 0.000000
3.888889 -0.555556 0.000000
5.000000 -0.555556 0.000000
-5.000000 -0.555556 0.000000
-3.888889 -1.666667 0.000000
-2.777778 -1.666667 0.000000
-1.666667 -1.666667 0.000000
-0.555555 -1.666667 0.000000
0.555556 -1.666667 0.000000
1.666667 -1.666667 0.000000
2.777778 -1.666667 0.000000
3.888889 -1.666667 0.000000
5.000000 -1.666667 0.000000
-5.000000 -1.666667 0.000000
-3.888889 -2.777778 0.000000
-2.777778 -2.777778 0.000000
-1.666667 -2.777778 0.000000
-0.555555 -2.777778 0.000000
0.555556 -2.777778 0.000000
1.666667 -2.777778 0.000000
2.777778 -2.777778 0.000000
3.888889 -2.777778 0.000000
5.000000 -2.777778 0.000000
-5.000000 -2.777778 0.000000
-3.888889 -3.888889 0.000000
-2.777778 -3.888889 0.000000
-1.666667 -3.888889 0.000000
-0.555555 -3.888889 0.000000
0.555556 -3.888889 0.000000
1.666667 -3.888889 0.000000
2.777778 -3.888889 0.000000
3.888889 -3.888889 0.000000
5.000000 -3.888889 0.000000
-5.000000 -3.888889 0.000000
-3.888889 -5.000000 0.000000
-2.777778 -5.000000 0.000000
-1.666667 -5.000000 0.000000
-0.555555 -5.000000 0.000000
0.555556 -5.000000 0.000000
1.666667 -5.000000 0.000000
2.777778 -5.000000 0.000000
3.888889 -5.000000 0.000000
5.000000 -5.000000 0.000000
-5.000000 -5.000000 0.000000
3 2 1 0
3 4 3 1
3 6 5 3
3 8 7 5
3 10 9 7
3 12 11 9
3 14 13 11
3 16 15 13
3 18 17 15
3 20 2 19
3 21 4 2
3 22 6 4
3 23 8 6
3 24 10 8
3 25 12 10
3 26 14 12
3 27 16 14
3 28 18 16
3 30 20 29
3 31 21 20
3 32 22 21
3 33 23 22
3 34 24 23
3 35 25 24
3 36 26 25
3 37 27 26
3 38 28 27
3 40 30 39
3 41 31 30
3 42 32 31
3 43 33 32
3 44 34 33
3 45 35 34
3 46 36 35
3 47 37 36
3 48 38 37
3 50 40 49
3 51 41 40
3 52 42 41
3 53 43 42
3 54 44 43
3 55 45 44
3 56 46 45
3 57 47 46
3 58 48 47
3 60 50 59
3 61 51 50
3 62 52 51
3 63 53 52
3 64 54 53
3 65 55 54
3 66 56 55
3 67 57 56
3 68 58 57
3 70 60 69
3 71 61 60
3 72 62 61
3 73 63 62
3 74 64 63
3 75 65 64
3 76 66 65
3 77 67 66
3 78 68 67
3 80 70 79
3 81 71 70
3 82 72 71
3 83 73 72
3 84 74 73
3 85 75 74
3 86 76 75
3 87 77 76
3 88 78 77
3 90 80 89
3 91 81 80
3 92 82 81
3 93 83 82
3 94 84 83
3 95 85 84
3 96 86 85
3 97 87 86
3 98 88 87
3 87 97 98
3 86 96 97
3 85 95 96
3 84 94 95
3 83 93 94
3 82 92 93
3 81 91 92
3 80 90 91
3 89 99 90
3 77 87 88
3 76 86 87
3 75 85 86
3 74 84 85
3 73 83 84
3 72 82 83
3 71 81 82
3 70 80 81
3 79 89 80
3 67 77 78
3 66 76 77
3 65 75 76
3 64 74 75
3 63 73 74
3 62 72 73
3 61 71 72
3 60 70 71
3 69 79 70
3 57 67 68
3 56 66 67
3 55 65 66
3 54 64 65
3 53 63 64
3 52 62 63
3 51 61 62
3 50 60 61
3 59 69 60
3 47 57 58
3 46 56 57
3 45 55 56
3 44 54 55
3 43 53 54
3 42 52 53
3 41 51 52
3 40 50 51
3 49 59 50
3 37 47 48
3 36 46 47
3 35 45 46
3 34 44 45
3 33 43 44
3 32 42 43
3 31 41 42
3 30 40 41
3 39 49 40
3 27 37 38
3 26 36 37
3 25 35 36
3 24 34 35
3 23 33 34
3 22 32 33
3 21 31 32
3 20 30 31
3 29 39 30
3 16 27 28
3 14 26 27
3 12 25 26
3 10 24 25
3 8 23 24
3 6 22 23
3 4 21 22
3 2 20 21
3 19 29 20
3 15 16 18
3 13 14 16
3 11 12 14
3 9 10 12
3 7 8 10
3 5 6 8
3 3 4 6
3 1 2 4
3 0 19 2
