ply
format ascii 1.0
element vertex 266
property float x
property float y
property float z
element face 528
property list uchar int vertex_indices
end_header
-0.000000 0.000000 2.495254
0.528925 0.141725 2.043565
0.714889 -0.000000 2.668140
0.378658 0.218618 1.631622
0.272150 0.272150 1.436162
0.195985 0.339457 1.462639
0.113969 0.425337 1.643211
0.000000 0.486705 1.816294
-0.184612 0.688981 2.662154
-0.427592 0.740611 3.191881
-0.572556 0.572556 3.022145
-0.714875 0.412733 3.080942
-0.778563 0.208616 3.008375
-0.814401 0.000000 3.039633
-0.727733 -0.194995 2.811927
-0.620030 -0.357974 2.672096
-0.485235 -0.485234 2.561134
-0.327480 -0.567212 2.444417
-0.147146 -0.549156 2.121753
-0.000000 -0.471692 1.760248
0.098973 -0.369373 1.426922
0.229113 -0.396835 1.709977
0.444414 -0.444415 2.345628
0.675748 -0.390144 2.912281
0.777113 -0.208228 3.002774
0.881063 0.000000 1.525915
1.269803 0.733121 2.539774
0.883946 0.883946 2.165274
0.213995 0.798642 1.431927
0.000000 1.498729 2.596058
-0.349239 1.303377 2.337260
-0.522886 0.905665 1.811284
-1.005060 0.580272 2.010133
-1.096672 0.293853 1.966498
-1.028937 0.000000 1.782116
-1.065092 -0.285390 1.909852
-0.962420 -0.962418 2.357550
-0.836639 -1.449100 2.898474
-0.388166 -1.448651 2.597835
-0.000000 -0.917291 1.588682
0.634406 -1.098825 2.197717
0.959365 -0.959366 2.350067
1.516918 -0.875794 3.034151
1.349146 -0.361504 2.419355
1.265677 0.339137 2.269639
1.535663 0.411480 1.589830
1.717350 0.991513 1.983135
1.436404 1.436404 2.031506
0.327564 0.567358 1.134470
0.847582 1.468055 1.695189
0.000000 1.635173 1.635181
-0.443826 1.656381 1.714843
-0.985690 0.985691 2.414569
-1.059660 1.835386 2.119470
-0.939286 0.542297 1.084440
-1.526420 0.000001 1.526396
-0.845607 -0.226579 0.875222
-1.377404 -0.795243 2.755037
-0.997167 -0.575714 1.151295
-1.101604 -1.101603 1.557887
-0.922125 -1.597167 1.844319
-0.375040 -1.399667 1.448995
-0.000000 -0.826145 0.825916
0.290306 -1.083438 1.942761
0.452783 -1.689815 1.749466
1.007234 -1.744582 2.014588
1.544705 -1.544707 2.184713
1.721462 -0.461266 1.782240
1.346815 0.000000 1.346738
2.043919 0.547667 1.221710
1.973983 1.139680 1.316041
1.794054 1.794054 1.464934
1.116448 1.933745 1.289207
0.336350 1.255276 1.299467
0.269985 1.007597 0.602102
0.000000 1.186146 0.684690
-0.604408 2.255682 1.348321
-1.182079 2.047422 1.365014
-1.057598 1.057598 1.495636
-1.679114 1.679115 1.371059
-1.414590 0.816714 0.943003
-1.952545 0.523184 2.021544
-2.466114 0.660794 1.474136
-2.772466 0.000001 1.600819
-1.466131 -0.392848 0.876255
-1.496474 -0.863989 0.997609
-1.713475 -1.713473 1.399122
-0.446227 -1.665340 0.995361
-0.000001 -1.485224 0.857413
0.411123 -1.534333 0.917033
0.865234 -1.498631 0.999047
1.711554 -1.711556 1.397555
1.527387 -0.881838 1.763720
1.605997 -0.927224 1.070645
1.427444 -0.382484 0.853125
2.715888 -0.000000 1.568144
1.813528 0.485933 0.503050
1.511650 0.872751 0.467671
1.486908 1.486908 0.563438
0.837790 1.451095 0.448930
0.351721 1.312640 0.364063
0.000000 1.620464 0.434157
-0.682046 2.545433 0.706141
-0.892367 1.545626 0.478186
-1.166007 1.166008 0.441801
-2.362257 1.363850 0.730926
-2.566276 0.000001 0.687660
-2.112397 -0.566014 0.585981
-2.069674 -1.194926 0.640374
-2.235091 -2.235089 0.847034
-0.804228 -1.392963 0.928582
-0.644015 -1.115465 0.345055
-0.000001 -2.081252 0.557661
0.604115 -2.254593 0.625438
1.534112 -2.657163 0.822197
1.514277 -0.874270 0.468484
2.099648 -0.562601 0.582444
2.115831 0.000000 0.566929
2.530764 0.678116 0.000000
2.269229 1.310140 -0.000000
1.525363 1.525363 -0.000000
1.051467 1.821195 -0.000000
0.800487 2.987459 0.000000
-0.483625 1.804915 -0.000000
-2.322605 2.322606 -0.000000
-1.996824 0.535048 0.553912
-1.089815 0.292015 0.000000
-2.318697 0.000001 0.000000
-2.418451 -0.648021 -0.000000
-2.405078 -1.388571 -0.000000
-0.575424 -0.996663 0.000000
-0.860628 -3.211902 0.891074
-0.821249 -3.064939 0.000000
-0.000001 -2.343816 0.000000
0.440225 -1.642947 0.000000
1.253954 -2.171915 -0.000000
1.469971 -1.469973 0.557018
1.511821 -1.511823 -0.000000
1.858113 -1.072784 0.000000
3.173657 -0.850381 0.000000
2.546358 -0.000000 0.000000
3.108250 0.832853 -0.862313
2.467342 1.424520 -0.763449
1.563629 1.563629 -0.592519
0.740340 1.282308 -0.396691
0.325644 1.215319 -0.337058
0.000000 1.552268 0.000000
0.000000 1.420363 -0.380525
-0.581972 2.171952 -0.602506
-1.666037 2.885661 0.000000
-1.214803 2.104102 -0.651029
-2.104389 2.104390 -0.797493
-1.687558 0.974313 0.000000
-1.388853 0.801855 -0.429667
-2.143925 0.000001 -0.574459
-2.175672 -0.582968 -0.603539
-1.960081 -1.131652 -0.606456
-1.508676 -1.508675 0.000000
-1.757135 -1.757133 -0.665866
-0.804926 -1.394172 -0.431313
-0.810390 -3.024413 -0.839049
-0.000001 -3.333372 -0.893263
0.538474 -2.009615 -0.557461
1.046863 -1.813222 -0.561005
1.401839 -1.401840 -0.531193
1.261188 -0.728148 -0.390155
2.020926 -0.541507 -0.560600
2.641716 -0.000000 -0.707880
2.486586 0.666279 -1.486376
1.758251 1.015127 -1.172178
1.446772 1.446772 -1.181297
0.740659 1.282859 -0.855157
0.322899 1.205073 -0.720171
0.000000 2.125269 -1.227051
-0.680318 2.538980 -1.517703
-1.013202 1.754918 -1.169955
-1.408021 1.408022 -1.149648
-1.593449 0.919979 -1.062277
-2.267247 0.607508 -0.628949
-1.873979 0.502132 -1.120104
-1.825675 0.000001 -1.054030
-2.477687 -0.663893 -1.481055
-1.091525 -1.091524 -0.891154
-0.552986 -0.957800 -0.638388
-0.490825 -1.831782 -1.094875
-0.000001 -2.201977 -1.271351
0.422653 -1.577364 -0.942761
1.177582 -2.039634 -1.359821
1.401258 -1.401259 -1.144125
1.442181 -0.832645 -0.961403
1.545394 -0.414088 -0.923646
1.917115 0.000000 -1.106838
2.096551 0.561769 -2.170674
1.280869 0.739510 -1.478982
1.145027 1.145027 -1.619316
0.626948 1.085906 -1.253792
0.357027 1.332444 -1.379381
0.000000 1.585455 -1.585448
-0.363966 1.358341 -1.406199
-0.610253 1.056989 -1.220392
-1.895829 1.094558 -2.189285
-0.947062 0.000000 -0.946868
-1.725912 -0.462456 -1.786848
-1.150581 -0.664287 -0.766946
-1.414462 -1.414461 -2.000465
-0.367145 -0.635913 -0.734033
-0.359107 -1.340203 -1.387416
-0.000001 -1.652518 -1.652531
0.367370 -1.371046 -1.419355
0.861100 -1.491470 -1.722234
1.251964 -1.251965 -1.770592
1.142525 -0.659638 -1.319190
1.206663 -0.323325 -1.249125
1.507670 0.000000 -1.507641
0.891579 0.238898 -1.598627
0.905198 0.905198 -2.217345
0.378707 0.655939 -1.311685
0.254431 0.949549 -1.702607
0.000000 1.058162 -1.832749
-0.254829 0.951035 -1.705271
-0.556705 0.964242 -1.928473
-1.367498 1.367498 -1.934029
-0.915009 0.915009 -2.241385
-1.006394 0.581042 -2.012801
-1.046236 0.280339 -1.082990
-0.838282 0.224617 -1.503029
-0.850258 0.000001 -1.472543
-1.089703 -0.291984 -1.953997
-1.578415 -0.911297 -1.822659
-1.208315 -0.697620 -2.416760
-0.884376 -0.884375 -2.166327
-0.358432 -0.620822 -1.241430
-0.227808 -0.850189 -1.524387
-0.000000 -0.770259 -1.333941
0.688337 -1.192236 -2.384592
1.181848 -1.181850 -2.895198
1.247421 -0.720200 -2.494998
0.967141 -0.259145 -1.734161
0.850988 0.000000 -1.473809
0.647303 0.173444 -2.501075
1.235389 0.713252 -2.470926
0.412489 0.412489 -2.177075
0.172334 0.643158 -2.485055
0.000000 0.700390 -2.614014
-0.179871 0.671286 -2.593767
-0.311544 0.539611 -2.325435
-0.371599 0.214542 -1.601191
-0.511144 0.000000 -1.907528
-0.529252 -0.141812 -2.044828
-0.330353 -0.330352 -1.743439
-0.223753 -0.387551 -1.669960
-0.122771 -0.458185 -1.770166
0.280203 -1.045735 -1.875133
0.141709 -0.528866 -2.043337
0.276703 -0.479265 -2.065306
0.394448 -0.394449 -2.081831
0.497874 -0.287448 -2.145523
0.716700 -0.000000 -2.674901
0.000000 -0.000000 -2.231167
0.500183 0.288781 -2.155478
0.327767 0.567709 -2.446560
-0.348047 0.348047 -1.836856
-0.484632 0.129857 -1.872380
-0.401805 -0.231982 -1.731399
-0.000000 -0.510613 -1.905547
0.626330 -0.167825 -2.420020
3 2 1 0
3 1 3 0
3 3 4 0
3 4 5 0
3 5 6 0
3 6 7 0
3 7 8 0
3 8 9 0
3 9 10 0
3 10 11 0
3 11 12 0
3 12 13 0
3 13 14 0
3 14 15 0
3 15 16 0
3 16 17 0
3 17 18 0
3 18 19 0
3 19 20 0
3 20 21 0
3 21 22 0
3 22 23 0
3 23 24 0
3 24 2 0
3 25 1 2
3 26 3 1
3 27 4 3
3 27 5 4
3 28 6 5
3 29 7 6
3 29 8 7
3 30 9 8
3 31 10 9
3 32 11 10
3 33 12 11
3 34 13 12
3 35 14 13
3 35 15 14
3 36 16 15
3 37 17 16
3 38 18 17
3 39 19 18
3 39 20 19
3 40 21 20
3 41 22 21
3 42 23 22
3 43 24 23
3 25 2 24
3 45 44 25
3 46 26 44
3 47 27 26
3 49 48 27
3 49 28 48
3 50 29 28
3 51 30 29
3 51 31 30
3 53 52 31
3 54 32 52
3 54 33 32
3 55 34 33
3 56 35 34
3 58 57 35
3 59 36 57
3 60 37 36
3 61 38 37
3 62 39 38
3 64 63 39
3 65 40 63
3 66 41 40
3 66 42 41
3 67 43 42
3 68 25 43
3 69 45 68
3 70 46 45
3 71 47 46
3 72 49 47
3 74 73 49
3 75 50 73
3 76 51 50
3 77 53 51
3 79 78 53
3 80 54 78
3 82 81 54
3 83 55 81
3 84 56 55
3 85 58 56
3 86 59 58
3 86 60 59
3 87 61 60
3 88 62 61
3 89 64 62
3 90 65 64
3 91 66 65
3 93 92 66
3 94 67 92
3 94 68 67
3 96 69 95
3 97 70 69
3 98 71 70
3 99 72 71
3 100 74 72
3 101 75 74
3 102 76 75
3 103 77 76
3 104 79 77
3 104 80 79
3 105 82 80
3 106 83 82
3 107 84 83
3 108 85 84
3 109 86 85
3 111 110 86
3 111 87 110
3 112 88 87
3 113 89 88
3 114 90 89
3 114 91 90
3 115 93 91
3 115 94 93
3 116 95 94
3 118 96 117
3 119 97 96
3 120 98 97
3 121 99 98
3 122 100 99
3 122 101 100
3 123 102 101
3 123 103 102
3 124 104 103
3 124 105 104
3 126 125 105
3 127 106 125
3 128 107 106
3 129 108 107
3 129 109 108
3 130 111 109
3 132 131 111
3 133 112 131
3 134 113 112
3 135 114 113
3 137 136 114
3 138 115 136
3 139 116 115
3 140 117 116
3 141 118 140
3 142 119 118
3 143 120 119
3 144 121 120
3 145 122 121
3 147 146 122
3 148 123 146
3 150 149 123
3 151 124 149
3 153 152 124
3 153 126 152
3 154 127 126
3 155 128 127
3 156 129 128
3 158 157 129
3 159 130 157
3 160 132 130
3 161 133 132
3 162 134 133
3 163 135 134
3 164 137 135
3 165 138 137
3 166 139 138
3 166 140 139
3 168 141 167
3 169 142 141
3 170 143 142
3 171 144 143
3 172 145 144
3 173 147 145
3 174 148 147
3 175 150 148
3 176 151 150
3 177 153 151
3 179 178 153
3 180 154 178
3 181 155 154
3 181 156 155
3 182 158 156
3 183 159 158
3 184 160 159
3 185 161 160
3 186 162 161
3 187 163 162
3 188 164 163
3 189 165 164
3 190 166 165
3 191 167 166
3 192 168 191
3 193 169 168
3 194 170 169
3 195 171 170
3 196 172 171
3 197 173 172
3 198 174 173
3 199 175 174
3 199 176 175
3 200 177 176
3 200 179 177
3 201 180 179
3 202 181 180
3 202 203 181
3 204 182 203
3 205 183 182
3 206 184 183
3 207 185 184
3 208 186 185
3 209 187 186
3 210 188 187
3 211 189 188
3 212 190 189
3 213 191 190
3 214 192 213
3 214 193 192
3 215 194 193
3 216 195 194
3 217 196 195
3 218 197 196
3 219 198 197
3 220 199 198
3 222 221 199
3 223 200 221
3 225 224 200
3 226 201 224
3 227 202 201
3 229 228 202
3 230 204 228
3 231 205 204
3 232 206 205
3 233 207 206
3 233 208 207
3 234 209 208
3 235 210 209
3 236 211 210
3 237 212 211
3 237 213 212
3 239 214 238
3 239 240 214
3 241 215 240
3 241 216 215
3 242 217 216
3 243 218 217
3 244 219 218
3 245 220 219
3 245 222 220
3 246 223 222
3 246 225 223
3 247 226 225
3 248 227 226
3 248 229 227
3 249 230 229
3 250 231 230
3 251 232 231
3 251 233 232
3 253 252 233
3 254 234 252
3 255 235 234
3 256 236 235
3 256 237 236
3 257 238 237
3 258 239 257
3 258 259 239
3 258 241 259
3 258 260 241
3 258 242 260
3 258 243 242
3 258 244 243
3 258 245 244
3 258 261 245
3 258 246 261
3 258 262 246
3 258 247 262
3 258 248 247
3 258 263 248
3 258 249 263
3 258 250 249
3 258 251 250
3 258 264 251
3 258 253 264
3 258 254 253
3 258 255 254
3 258 256 255
3 258 265 256
3 258 257 265
3 237 265 257
3 256 265 237
3 235 255 256
3 234 254 255
3 252 253 254
3 233 264 253
3 251 264 233
3 231 250 251
3 230 249 250
3 229 263 249
3 248 263 229
3 226 247 248
3 225 262 247
3 246 262 225
3 222 261 246
3 245 261 222
3 219 244 245
3 218 243 244
3 217 242 243
3 216 260 242
3 241 260 216
3 240 259 241
3 239 259 240
3 238 257 239
3 237 238 213
3 211 236 237
3 210 235 236
3 209 234 235
3 208 252 234
3 233 252 208
3 206 232 233
3 205 231 232
3 204 230 231
3 228 229 230
3 202 227 229
3 201 226 227
3 224 225 226
3 200 223 225
3 221 222 223
3 199 220 222
3 198 219 220
3 197 218 219
3 196 217 218
3 195 216 217
3 194 215 216
3 193 240 215
3 214 240 193
3 213 238 214
3 190 212 213
3 189 211 212
3 188 210 211
3 187 209 210
3 186 208 209
3 185 207 208
3 184 206 207
3 183 205 206
3 182 204 205
3 203 228 204
3 202 228 203
3 180 201 202
3 179 224 201
3 200 224 179
3 176 221 200
3 199 221 176
3 174 198 199
3 173 197 198
3 172 196 197
3 171 195 196
3 170 194 195
3 169 193 194
3 168 192 193
3 191 213 192
3 166 190 191
3 165 189 190
3 164 188 189
3 163 187 188
3 162 186 187
3 161 185 186
3 160 184 185
3 159 183 184
3 158 182 183
3 156 203 182
3 181 203 156
3 154 180 181
3 178 179 180
3 153 177 179
3 151 176 177
3 150 175 176
3 148 174 175
3 147 173 174
3 145 172 173
3 144 171 172
3 143 170 171
3 142 169 170
3 141 168 169
3 167 191 168
3 166 167 140
3 138 165 166
3 137 164 165
3 135 163 164
3 134 162 163
3 133 161 162
3 132 160 161
3 130 159 160
3 157 158 159
3 129 156 158
3 128 155 156
3 127 154 155
3 126 178 154
3 153 178 126
3 124 151 153
3 149 150 151
3 123 148 150
3 146 147 148
3 122 145 147
3 121 144 145
3 120 143 144
3 119 142 143
3 118 141 142
3 140 167 141
3 116 139 140
3 115 138 139
3 136 137 138
3 114 135 137
3 113 134 135
3 112 133 134
3 131 132 133
3 111 130 132
3 109 157 130
3 129 157 109
3 107 128 129
3 106 127 128
3 125 126 127
3 105 152 126
3 124 152 105
3 103 149 124
3 123 149 103
3 101 146 123
3 122 146 101
3 99 121 122
3 98 120 121
3 97 119 120
3 96 118 119
3 117 140 118
3 116 117 95
3 115 116 94
3 91 136 115
3 114 136 91
3 89 113 114
3 88 112 113
3 87 131 112
3 111 131 87
3 86 109 111
3 85 108 109
3 84 107 108
3 83 106 107
3 82 125 106
3 105 125 82
3 104 105 80
3 77 103 104
3 76 102 103
3 75 101 102
3 74 100 101
3 72 99 100
3 71 98 99
3 70 97 98
3 69 96 97
3 95 117 96
3 94 95 68
3 92 93 94
3 66 91 93
3 65 90 91
3 64 89 90
3 62 88 89
3 61 87 88
3 60 110 87
3 86 110 60
3 58 85 86
3 56 84 85
3 55 83 84
3 81 82 83
3 54 80 82
3 78 79 80
3 53 77 79
3 51 76 77
3 50 75 76
3 73 74 75
3 49 72 74
3 47 71 72
3 46 70 71
3 45 69 70
3 68 95 69
3 43 67 68
3 42 92 67
3 66 92 42
3 40 65 66
3 63 64 65
3 39 62 64
3 38 61 62
3 37 60 61
3 36 59 60
3 57 58 59
3 35 56 58
3 34 55 56
3 33 81 55
3 54 81 33
3 52 78 54
3 53 78 52
3 51 53 31
3 29 50 51
3 28 73 50
3 49 73 28
3 27 47 49
3 26 46 47
3 44 45 46
3 25 68 45
3 24 43 25
3 23 42 43
3 22 41 42
3 21 40 41
3 20 63 40
3 39 63 20
3 18 38 39
3 17 37 38
3 16 36 37
3 15 57 36
3 35 57 15
3 13 34 35
3 12 33 34
3 11 32 33
3 10 52 32
3 31 52 10
3 30 31 9
3 29 30 8
3 6 28 29
3 5 48 28
3 27 48 5
3 3 26 27
3 1 44 26
3 25 44 1
