ply
format ascii 1.0
element vertex 100
property float x
property float y
property float z
element face 162
property list uchar int vertex_indices
end_header
3.532220 4.095000 -4.095000
3.007944 3.185000 -4.095000
2.956880 3.185000 -3.185000
2.544600 2.275000 -4.095000
2.650439 2.275000 -3.185000
2.854648 1.365000 -4.095000
3.126892 1.365000 -3.185000
3.334977 0.455000 -4.095000
3.748723 0.455000 -3.185000
3.641831 -0.455000 -4.095000
3.890816 -0.455000 -3.185000
4.247190 -1.365000 -4.095000
4.182476 -1.365000 -3.185000
4.316323 -2.275000 -4.095000
4.146126 -2.275000 -3.185000
4.171724 -3.185000 -4.095000
4.173495 -3.185000 -3.185000
4.205297 -4.095000 -4.095000
4.612680 -4.095000 -3.185000
3.497265 4.095000 -3.185000
2.841997 3.185000 -2.275000
2.743780 2.275000 -2.275000
3.203537 1.365000 -2.275000
3.433370 0.455000 -2.275000
3.973828 -0.455000 -2.275000
4.458204 -1.365000 -2.275000
4.050115 -2.275000 -2.275000
3.934006 -3.185000 -2.275000
4.335600 -4.095000 -2.275000
3.329922 4.095000 -2.275000
3.263547 3.185000 -1.365000
3.245519 2.275000 -1.365000
3.538458 1.365000 -1.365000
3.529575 0.455000 -1.365000
3.983522 -0.455000 -1.365000
4.226683 -1.365000 -1.365000
3.976901 -2.275000 -1.365000
4.116698 -3.185000 -1.365000
4.380824 -4.095000 -1.365000
3.527490 4.095000 -1.365000
3.697929 3.185000 -0.455000
3.302610 2.275000 -0.455000
3.396136 1.365000 -0.455000
3.082526 0.455000 -0.455000
3.664085 -0.455000 -0.455000
3.857210 -1.365000 -0.455000
4.281571 -2.275000 -0.455000
4.077771 -3.185000 -0.455000
4.100673 -4.095000 -0.455000
4.134615 4.095000 -0.455000
3.377297 3.185000 0.455000
3.137468 2.275000 0.455000
2.861283 1.365000 0.455000
2.618158 0.455000 0.455000
3.016389 -0.455000 0.455000
4.042341 -1.365000 0.455000
4.003672 -2.275000 0.455000
4.009416 -3.185000 0.455000
4.509144 -4.095000 0.455000
3.509881 4.095000 0.455000
3.328069 3.185000 1.365000
3.174241 2.275000 1.365000
2.943685 1.365000 1.365000
2.544779 0.455000 1.365000
2.925453 -0.455000 1.365000
3.793295 -1.365000 1.365000
3.922158 -2.275000 1.365000
4.183417 -3.185000 1.365000
4.591196 -4.095000 1.365000
3.351301 4.095000 1.365000
3.666339 3.185000 2.275000
3.286650 2.275000 2.275000
3.217165 1.365000 2.275000
2.736975 0.455000 2.275000
2.890749 -0.455000 2.275000
3.493457 -1.365000 2.275000
3.668782 -2.275000 2.275000
4.339905 -3.185000 2.275000
4.233685 -4.095000 2.275000
3.524659 4.095000 2.275000
3.974769 3.185000 3.185000
3.575356 2.275000 3.185000
3.085176 1.365000 3.185000
2.961524 0.455000 3.185000
3.224458 -0.455000 3.185000
3.495322 -1.365000 3.185000
3.648810 -2.275000 3.185000
4.016548 -3.185000 3.185000
3.821236 -4.095000 3.185000
3.732937 4.095000 3.185000
3.351916 3.185000 4.095000
3.177916 2.275000 4.095000
2.920976 1.365000 4.095000
3.028572 0.455000 4.095000
3.644600 -0.455000 4.095000
4.066135 -1.365000 4.095000
3.815259 -2.275000 4.095000
3.851349 -3.185000 4.095000
3.956105 -4.095000 4.095000
3.591903 4.095000 4.095000
3 2 1 0
3 4 3 1
3 6 5 3
3 8 7 5
3 10 9 7
3 12 11 9
3 14 13 11
3 16 15 13
3 18 17 15
3 20 2 19
3 21 4 2
3 22 6 4
3 23 8 6
3 24 10 8
3 25 12 10
3 26 14 12
3 27 16 14
3 28 18 16
3 30 20 29
3 31 21 20
3 32 22 21
3 33 23 22
3 34 24 23
3 35 25 24
3 36 26 25
3 37 27 26
3 38 28 27
3 40 30 39
3 41 31 30
3 42 32 31
3 43 33 32
3 44 34 33
3 45 35 34
3 46 36 35
3 47 37 36
3 48 38 37
3 50 40 49
3 51 41 40
3 52 42 41
3 53 43 42
3 54 44 43
3 55 45 44
3 56 46 45
3 57 47 46
3 58 48 47
3 60 50 59
3 61 51 50
3 62 52 51
3 63 53 52
3 64 54 53
3 65 55 54
3 66 56 55
3 67 57 56
3 68 58 57
3 70 60 69
3 71 61 60
3 72 62 61
3 73 63 62
3 74 64 63
3 75 65 64
3 76 66 65
3 77 67 66
3 78 68 67
3 80 70 79
3 81 71 70
3 82 72 71
3 83 73 72
3 84 74 73
3 85 75 74
3 86 76 75
3 87 77 76
3 88 78 77
3 90 80 89
3 91 81 80
3 92 82 81
3 93 83 82
3 94 84 83
3 95 85 84
3 96 86 85
3 97 87 86
3 98 88 87
3 87 97 98
3 86 96 97
3 85 95 96
3 84 94 95
3 83 93 94
3 82 92 93
3 81 91 92
3 80 90 91
3 89 99 90
3 77 87 88
3 76 86 87
3 75 85 86
3 74 84 85
3 73 83 84
3 72 82 83
3 71 81 82
3 70 80 81
3 79 89 80
3 67 77 78
3 66 76 77
3 65 75 76
3 64 74 75
3 63 73 74
3 62 72 73
3 61 71 72
3 60 70 71
3 69 79 70
3 57 67 68
3 56 66 67
3 55 65 66
3 54 64 65
3 53 63 64
3 52 62 63
3 51 61 62
3 50 60 61
3 59 69 60
3 47 57 58
3 46 56 57
3 45 55 56
3 44 54 55
3 43 53 54
3 42 52 53
3 41 51 52
3 40 50 51
3 49 59 50
3 37 47 48
3 36 46 47
3 35 45 46
3 34 44 45
3 33 43 44
3 32 42 43
3 31 41 42
3 30 40 41
3 39 49 40
3 27 37 38
3 26 36 37
3 25 35 36
3 24 34 35
3 23 33 34
3 22 32 33
3 21 31 32
3 20 30 31
3 29 39 30
3 16 27 28
3 14 26 27
3 12 25 26
3 10 24 25
3 8 23 24
3 6 22 23
3 4 21 22
3 2 20 21
3 19 29 20
3 15 16 18
3 13 14 16
3 11 12 14
3 9 10 12
3 7 8 10
3 5 6 8
3 3 4 6
3 1 2 4
3 0 19 2
